<?xml version="1.0" encoding="UTF-8"?>
<svg version="1.1" xmlns="http://www.w3.org/2000/svg" width="128" height="128">
<path d="M0 0 C2.9375 1.1875 2.9375 1.1875 4.46606445 4.17211914 C6.18684524 8.55086115 7.3116755 13.05545866 8.41796875 17.62109375 C8.74454216 18.9379995 8.74454216 18.9379995 9.07771301 20.2815094 C9.76572145 23.061331 10.44548129 25.84309232 11.125 28.625 C11.59255361 30.52031691 12.06064713 32.41550071 12.52929688 34.31054688 C13.67161481 38.93468189 14.80654404 43.56057359 15.9375 48.1875 C16.1641333 47.61306152 16.3907666 47.03862305 16.62426758 46.44677734 C17.66339341 43.81757443 18.70666084 41.19003364 19.75 38.5625 C20.10642578 37.65886719 20.46285156 36.75523438 20.83007812 35.82421875 C22.68379158 31.1644253 24.60039746 26.62578305 26.9375 22.1875 C32.12009079 21.5437335 32.12009079 21.5437335 34.9375 22.1875 C36.65040244 24.72027924 37.81294494 26.88616411 39.0625 29.625 C40.67483884 32.62581803 42.26029739 35.04892671 44.9375 37.1875 C51.35994706 39.09076419 58.24267328 38.53327481 64.84960938 37.99316406 C65.88311523 38.08936035 65.88311523 38.08936035 66.9375 38.1875 C69.09252531 41.42003796 69.40606135 42.43900923 68.9375 46.1875 C67.7421875 47.83203125 67.7421875 47.83203125 65.9375 49.1875 C63.45703125 49.48046875 63.45703125 49.48046875 60.75 49.375 C59.84894531 49.34792969 58.94789062 49.32085937 58.01953125 49.29296875 C57.33246094 49.25816406 56.64539063 49.22335938 55.9375 49.1875 C56.2675 50.1775 56.5975 51.1675 56.9375 52.1875 C59.2475 52.5175 61.5575 52.8475 63.9375 53.1875 C65.51826658 56.64542689 66.45329638 59.3706068 65.9375 63.1875 C64.9475 63.8475 63.9575 64.5075 62.9375 65.1875 C64.15757944 67.8780528 64.15757944 67.8780528 65.9375 70.1875 C65.55806512 74.28539669 65.24444043 76.72708935 62.9375 80.1875 C59.8125 80.375 59.8125 80.375 56.9375 80.1875 C56.89625 81.280625 56.855 82.37375 56.8125 83.5 C55.9375 87.1875 55.9375 87.1875 53.125 89.1875 C48.83578983 90.53313456 48.83578983 90.53313456 45.9375 89.1875 C45.2775 88.5275 44.6175 87.8675 43.9375 87.1875 C41.85416667 87.35416667 41.85416667 87.35416667 39.9375 88.1875 C39.6075 88.8475 39.2775 89.5075 38.9375 90.1875 C32.3125 89.4375 32.3125 89.4375 28.9375 87.1875 C28.25 83.5625 28.25 83.5625 27.9375 80.1875 C27.009375 80.290625 26.08125 80.39375 25.125 80.5 C24.073125 80.396875 23.02125 80.29375 21.9375 80.1875 C20.0625 77.6875 20.0625 77.6875 18.9375 75.1875 C18.03 75.435 17.1225 75.6825 16.1875 75.9375 C12.9375 76.1875 12.9375 76.1875 10.89550781 74.77441406 C8.13569074 71.128152 7.38162644 67.45549675 6.359375 63.046875 C6.14307434 62.16469299 5.92677368 61.28251099 5.70391846 60.37359619 C5.01841849 57.56460754 4.3527482 54.75134606 3.6875 51.9375 C3.22525953 50.02833032 2.76173238 48.11947168 2.296875 46.2109375 C1.16214014 41.53993172 0.04516154 36.86499643 -1.0625 32.1875 C-1.54450309 33.46871343 -2.02611792 34.75007293 -2.50756836 36.03149414 C-2.77580917 36.74503555 -3.04404999 37.45857697 -3.32041931 38.19374084 C-3.87545613 39.68496647 -4.41293896 41.18274663 -4.94140625 42.68359375 C-6.84027778 48.07638889 -6.84027778 48.07638889 -9.0625 49.1875 C-13.53643137 49.45872207 -18.01878162 49.41912494 -22.5 49.4375 C-23.75361328 49.458125 -25.00722656 49.47875 -26.29882812 49.5 C-28.09803711 49.50773437 -28.09803711 49.50773437 -29.93359375 49.515625 C-31.58766235 49.52964355 -31.58766235 49.52964355 -33.27514648 49.54394531 C-36.0625 49.1875 -36.0625 49.1875 -37.96118164 47.89355469 C-39.0625 46.1875 -39.0625 46.1875 -38.8125 42.5625 C-38.0625 39.1875 -38.0625 39.1875 -37.0625 38.1875 C-35.50077255 38.10064397 -33.93520656 38.08047781 -32.37109375 38.08984375 C-31.42685547 38.09306641 -30.48261719 38.09628906 -29.50976562 38.09960938 C-28.51654297 38.10798828 -27.52332031 38.11636719 -26.5 38.125 C-25.50291016 38.12951172 -24.50582031 38.13402344 -23.47851562 38.13867188 C-21.00645151 38.15049993 -18.53450482 38.16698151 -16.0625 38.1875 C-15.95728027 37.60919434 -15.85206055 37.03088867 -15.74365234 36.43505859 C-14.41612663 29.45004014 -12.64684299 22.64486415 -10.6875 15.8125 C-10.39617188 14.74644531 -10.10484375 13.68039063 -9.8046875 12.58203125 C-9.51078125 11.55722656 -9.216875 10.53242187 -8.9140625 9.4765625 C-8.65447754 8.55568848 -8.39489258 7.63481445 -8.12744141 6.68603516 C-6.37325768 2.57041932 -4.55601099 0.27893945 0 0 Z M31.9375 40.1875 C31.6075 41.5075 31.2775 42.8275 30.9375 44.1875 C31.9275 44.1875 32.9175 44.1875 33.9375 44.1875 C33.2775 42.8675 32.6175 41.5475 31.9375 40.1875 Z M36.4375 61.25 C34.47148819 65.10010646 34.72031509 67.07950092 35.9375 71.1875 C37.4375 73.35416667 37.4375 73.35416667 39.9375 74.1875 C43.68995951 74.12166738 46.00062483 74.00348805 48.875 71.5 C50.27567538 68.45147123 50.4217732 66.50823048 49.9375 63.1875 C48.50088689 60.66743156 48.50088689 60.66743156 45.9375 59.1875 C41.66284054 58.50050116 39.81709834 58.46183137 36.4375 61.25 Z " fill="#D5365F" transform="translate(49.0625,25.8125)"/>
<path d="M0 0 C0.66 0.66 1.32 1.32 2 2 C4.93453261 1.63318342 5.86437246 1.13562754 8 -1 C11.44165321 -0.64700993 13.06872538 0.04581692 16 2 C17.1875 5.125 17.1875 5.125 18 8 C20.31 8.33 22.62 8.66 25 9 C26.58076658 12.45792689 27.51579638 15.1831068 27 19 C26.01 19.66 25.02 20.32 24 21 C25.22007944 23.6905528 25.22007944 23.6905528 27 26 C26.62056512 30.09789669 26.30694043 32.53958935 24 36 C20.875 36.1875 20.875 36.1875 18 36 C17.95875 37.093125 17.9175 38.18625 17.875 39.3125 C17 43 17 43 14.1875 45 C9.89828983 46.34563456 9.89828983 46.34563456 7 45 C6.34 44.34 5.68 43.68 5 43 C2.91666667 43.16666667 2.91666667 43.16666667 1 44 C0.67 44.66 0.34 45.32 0 46 C-6.625 45.25 -6.625 45.25 -10 43 C-10.6875 39.375 -10.6875 39.375 -11 36 C-12.98 36 -14.96 36 -17 36 C-20.05232558 30.62790698 -20.05232558 30.62790698 -19.8125 27.75 C-19 26 -19 26 -17 24 C-17.28983269 20.69316534 -17.28983269 20.69316534 -19 18 C-18.30232558 11.60465116 -18.30232558 11.60465116 -17 9 C-13.9375 8.375 -13.9375 8.375 -11 8 C-10.62875 6.329375 -10.62875 6.329375 -10.25 4.625 C-9 1 -9 1 -7.1875 -0.5 C-4.44076175 -1.12782589 -2.67675845 -0.84529214 0 0 Z M-2.5 17.0625 C-4.46601181 20.91260646 -4.21718491 22.89200092 -3 27 C-1.5 29.16666667 -1.5 29.16666667 1 30 C4.75245951 29.93416738 7.06312483 29.81598805 9.9375 27.3125 C11.33817538 24.26397123 11.4842732 22.32073048 11 19 C9.56338689 16.47993156 9.56338689 16.47993156 7 15 C2.72534054 14.31300116 0.87959834 14.27433137 -2.5 17.0625 Z " fill="#6E8FB7" transform="translate(88,70)"/>
<path d="M0 0 C2.4375 0.875 2.4375 0.875 5.4375 2.875 C6.625 6 6.625 6 7.4375 8.875 C9.7475 9.205 12.0575 9.535 14.4375 9.875 C16.01826658 13.33292689 16.95329638 16.0581068 16.4375 19.875 C15.4475 20.535 14.4575 21.195 13.4375 21.875 C14.65757944 24.5655528 14.65757944 24.5655528 16.4375 26.875 C16.05806512 30.97289669 15.74444043 33.41458935 13.4375 36.875 C10.3125 37.0625 10.3125 37.0625 7.4375 36.875 C7.39625 37.968125 7.355 39.06125 7.3125 40.1875 C6.4375 43.875 6.4375 43.875 3.625 45.875 C-0.73143039 47.24172326 -0.73143039 47.24172326 -3.5625 45.875 C-5.3125 44.6875 -5.3125 44.6875 -6.5625 42.875 C-6.75 39.6875 -6.75 39.6875 -6.5625 36.875 C-5.94761719 36.65585938 -5.33273438 36.43671875 -4.69921875 36.2109375 C-0.75140993 34.66203643 1.87818814 33.6038003 4.5 30.1875 C5.85461519 25.401193 6.78331268 20.69223453 4.55859375 16.03515625 C1.45355793 11.84387027 -1.69530209 10.82935253 -6.5625 9.875 C-6.88978047 6.27491481 -6.96672813 4.45888508 -4.875 1.4375 C-2.5625 -0.125 -2.5625 -0.125 0 0 Z " fill="#577AA0" transform="translate(98.5625,69.125)"/>
<path d="M0 0 C4.14177256 1.71073214 6.73186849 4.13577595 9 8 C9.85689516 12.60472957 9.49136449 16.67784017 7.375 20.875 C4.73138045 24.35344677 3.12341806 25.62552731 -1 27 C-5.35928552 27.54491069 -7.39065656 27.33982615 -11.25 25.1875 C-16.72164948 20.83505155 -16.72164948 20.83505155 -18 17 C-18.50171564 10.87906919 -18.08833623 7.8832905 -14 3 C-9.64603804 -0.90835391 -5.60599753 -0.66542735 0 0 Z M-10.5 8.0625 C-12.46601181 11.91260646 -12.21718491 13.89200092 -11 18 C-9.5 20.16666667 -9.5 20.16666667 -7 21 C-3.24754049 20.93416738 -0.93687517 20.81598805 1.9375 18.3125 C3.33817538 15.26397123 3.4842732 13.32073048 3 10 C1.56338689 7.47993156 1.56338689 7.47993156 -1 6 C-5.27465946 5.31300116 -7.12040166 5.27433137 -10.5 8.0625 Z " fill="#94BCD9" transform="translate(96,79)"/>
<path d="M0 0 C4.55275154 0.09105503 7.29008968 0.74742562 10.4375 4 C13.14461631 7.54175003 13.78454483 10.37515293 13.453125 14.7890625 C12.66650831 18.62720948 11.39537246 20.84819413 9 24 C5.71628706 26.07745104 3.88340615 27 0 27 C-0.3125 24.1875 -0.3125 24.1875 0 21 C2.4375 19.25 2.4375 19.25 5 18 C6.39935013 15.20129973 6.25265405 13.09501208 6 10 C4.14657225 7.44050454 3.06243607 7.02081202 0 6 C0 4.02 0 2.04 0 0 Z " fill="#7FA5C5" transform="translate(92,79)"/>
</svg>
